<svg xmlns="http://www.w3.org/2000/svg" viewBox="0 0 560 560" fill="none" shape-rendering="auto"><metadata xmlns:rdf="http://www.w3.org/1999/02/22-rdf-syntax-ns#" xmlns:xsi="http://www.w3.org/2001/XMLSchema-instance" xmlns:dc="http://purl.org/dc/elements/1.1/" xmlns:dcterms="http://purl.org/dc/terms/"><rdf:RDF><rdf:Description><dc:title>Notionists</dc:title><dc:creator>Zoish</dc:creator><dc:source xsi:type="dcterms:URI">https://heyzoish.gumroad.com/l/notionists</dc:source><dcterms:license xsi:type="dcterms:URI">https://creativecommons.org/publicdomain/zero/1.0/</dcterms:license><dc:rights>Remix of „Notionists” (https://heyzoish.gumroad.com/l/notionists) by „Zoish”, licensed under „CC0 1.0” (https://creativecommons.org/publicdomain/zero/1.0/)</dc:rights></rdf:Description></rdf:RDF></metadata><mask id="viewboxMask"><rect width="560" height="560" rx="0" ry="0" x="0" y="0" fill="#fff" /></mask><g mask="url(#viewboxMask)"><rect fill="#ffffff" width="560" height="560" x="0" y="0" /><g transform="translate(136 328)"><path d="M159.8 103c-3.2-2.8-6-6.4-9.7-8.1-18-8.5-31.4-21.7-44-36.9-14-16.7-28-34.4-49-43.4-8-3.5-16.3-7.8-24.7 0C22 24.1 9.6 33 12.4 49.1c2.5 14 11 24.6 22.6 33.8 26.5 21.1 58 26.5 90 30.7 11.8 1.6 25.3 1.5 34.8-10.6Z" fill="#fff"/><path fill-rule="evenodd" clip-rule="evenodd" d="M104.8 38.9a85.7 85.7 0 0 0-24-23.6c-4.2-4.4-9.2-6.3-14-8-2-.8-4-1.5-5.8-2.4-22-10.3-48.1.7-57.4 23.3a50.7 50.7 0 0 0 16.1 58.2c20.7 17.7 45.5 30 72.1 35.7 22.7 5 45 7.8 67.9.5 8.8-2.8 16-7.1 17.1-16.5 1.1-8.2-3.5-14.4-10.8-18.7-1.5-.9-2.9-2-4.3-3.2-1.5-1.2-3-2.4-4.8-3.4-19.5-11.2-38.2-23-52-42Zm52 61.3 3 2.8c-9.5 12.1-23 12.2-34.9 10.6-31.8-4.2-63.4-9.6-90-30.7a55.9 55.9 0 0 1-22.5-33.8C9.9 34.8 19.5 26 29 17.7l3.4-3c8-7.4 15.7-4 23.3-.7l1.5.6c19.9 8.6 33.4 24.8 46.6 40.7L106 58A131.4 131.4 0 0 0 150.1 95c2.5 1.2 4.6 3.2 6.7 5.3Z" fill="#000"/></g><g transform="translate(246 125)"><path d="M76.7 82.4a205.6 205.6 0 0 0 3.3 80.2c4.7 22.4-15.2 54.4-46.8 49.7-11-1.6-17.5-8.1-21.3-17.8-1.7-4.3-1.5-8.8 3.3-11 4-1.7 7.4-.2 9.4 4 4.8 10.1 13.4 9.4 21.9 6.9 9.6-2.9 16.4-9.6 17.1-19.9.7-10.1.2-20.3-1.6-30.4a159.3 159.3 0 0 1 8.8-89.5c2.2-5.7 5.4-10.9 11.9-8.3 7.5 3 1.8 8.8.7 13.1-1.7 7.4-4.2 14.7-6.7 23Z" fill="#000"/></g><g transform="translate(-45 137)"><path d="M409.2 75.7c13.1.3 25.4 1 37.7 2.5 3 .3 4.9 3.3 5 6.6 0 3.4-1.8 5.7-4.8 7-11.1 4.9-22 8.3-33.7.2-6.5-4.4-8.9-8.6-4.2-16.3ZM254.7 78.4c6.2 3.3 5.2 7 2.1 10.8-6.5 8-28.2 10-36.4 3.5-4.7-3.8-7.3-8.6-4.4-14.4 3-6 8.2-5 13-2.5 8 4 16.4 3 25.7 2.6Z" fill="#000"/></g><g transform="translate(-45 137)"><g fill="#000"><path fill-rule="evenodd" clip-rule="evenodd" d="m326 14.3 154.5 1c4.7.2 9.4.6 14 1.3 7.1.9 10.4 4.2 12 12a181 181 0 0 1-6.3 90.4c-5.4 17.7-20 28.1-37.5 33.6-23 7.1-46.5 12.4-69.8 3.9-20.8-7.6-37.2-20-42.9-44-.7-3-1.6-5.9-2.5-8.8-2.5-8.3-5-16.5-3.2-25.7.7-4-3.1-5.9-6-7.4h-.1c-15-7.6-29.7-.2-32.4 16.5-3 18.3-9 35.8-19.4 50.8-16.5 23.9-41.6 29.4-69 26.1a97.2 97.2 0 0 1-56.2-26.6 58 58 0 0 1-20-48.8c.8-11.2-5.5-16.3-13.8-17.7-14.3-2.4-27.6-7.8-40.8-13.2-4.7-2-9.4-3.9-14.2-5.6-7.2-2.7-14.5-5-21.8-7.3a384.7 384.7 0 0 1-25-8.5c-3.8-1.4-7-2.6-6.4-8.5 5.7-2.6 11-1 16.4.8C39 29.8 42.8 31 46.8 31c-2.7-9-8.3-12.4-17.3-12.8A35.3 35.3 0 0 1 2 5C6.7.4 11 .7 15 1.8c21.4 5.8 43.2 9.1 65 12.4 18 2.7 36 5.4 53.8 9.6 10.3 2.3 21.4 2.4 31-6.5 6.3-5.6 15.5-5.5 24-5.3h3.1c25.3.3 50.5.9 76.2 1.4l32.3.7 25.6.2ZM150.5 80c3.3 41.7 26.7 63 62.7 71 23.6 5.2 52.3.1 66.8-26.8a203.8 203.8 0 0 0 17-47.6c4-15.2 14.3-20 35.7-18.3 14.3 1.2 20.9 7.9 22.8 22.5 1.4 11 3 22 5 32.8 2.5 13.7 19.5 30.3 33.3 33a117 117 0 0 0 64-4.6c12-4.3 22.9-10.4 28.7-23 10-22 13-45.3 12.7-69.2-.2-22-1.6-23.4-24.3-23.5h-42.2c-19.6 0-39.1 0-58.6-.2l-75-.8c-29-.4-58-.8-87.1-1-3.5 0-7.1-.3-10.7-.7-10.8-1-21.7-2-30.3 5.1-9 7.4-17.8 7.4-27.4 7.4h-3.4c-2.5 0-5-.5-7.5-1-4.2-.9-8.5-1.8-13.1-.1 1.3 14.8 4.7 27.7 21.9 31.2 6.3 1.2 9.7 4.8 9 13.8ZM74.5 26.6c8.9-1.2 17-2.2 20 10.5a195 195 0 0 0 4 11.4c-13-2.7-23.2-7.7-28.1-21.4l4.1-.5Z"/><path d="M287 44.8c-.8-6 3-7.4 7-7.4 19 0 38 0 57.1.5 4.4 0 8.5 2 11.1 5.5-6.9 8.1-53.6 9.4-75.3 1.4Z"/></g></g><g transform="translate(119 114)"><path d="M107.5 34.6c4.3 5.6 14.4 8.2 8.3 16.8-5.8 8.2-15.6 8.7-24.3 6.4C82 55.5 73 52 64.4 47.2c-12.1-7-23.1-6.2-34.8.2-6.6 3.6-16 9.8-20.4 1.9-5-9.2 7-11.4 12.8-15.4 18-12.8 38.8-14 60-12.2 9.6.8 16.7 7.7 25.5 13ZM231.2 44.2c15.9-7.4 30.7-14.8 48.2-12.7a47.6 47.6 0 0 1 30 15.2c2.9 3.1 5 7.5 1.4 11.4-3.6 3.7-8.6 4.5-12.5.4-10-10.7-20.3-8.4-30.7-1.4-9 6.1-19.6 5.5-29.4 6.4-10.7 1-13.4-6.6-7-19.3Z" fill="#000"/></g></g></svg>