<svg xmlns="http://www.w3.org/2000/svg" viewBox="0 0 560 560" fill="none" shape-rendering="auto"><metadata xmlns:rdf="http://www.w3.org/1999/02/22-rdf-syntax-ns#" xmlns:xsi="http://www.w3.org/2001/XMLSchema-instance" xmlns:dc="http://purl.org/dc/elements/1.1/" xmlns:dcterms="http://purl.org/dc/terms/"><rdf:RDF><rdf:Description><dc:title>Notionists</dc:title><dc:creator>Zoish</dc:creator><dc:source xsi:type="dcterms:URI">https://heyzoish.gumroad.com/l/notionists</dc:source><dcterms:license xsi:type="dcterms:URI">https://creativecommons.org/publicdomain/zero/1.0/</dcterms:license><dc:rights>Remix of „Notionists” (https://heyzoish.gumroad.com/l/notionists) by „Zoish”, licensed under „CC0 1.0” (https://creativecommons.org/publicdomain/zero/1.0/)</dc:rights></rdf:Description></rdf:RDF></metadata><mask id="viewboxMask"><rect width="560" height="560" rx="0" ry="0" x="0" y="0" fill="#fff" /></mask><g mask="url(#viewboxMask)"><rect fill="#ffffff" width="560" height="560" x="0" y="0" /><g transform="translate(136 328)"><path d="M99.3 109c-12.6 6.6-16.2-1.7-20-10.4-3.3-7.8-.8-18.1-13.5-21.8-6-1.7-.7-10.5 2.2-15.4 2.4-4.2 6.9-6.4 10.6-2.4 15.8 17.4 37.8 16.7 58 20C160 82.8 182 73.9 204 67.6c4.4-1.2 9.2-5.2 13-1 4 4.6 4.9 11.2 2 16.7a51.8 51.8 0 0 1-19.5 22.8c-4 2.4-8 4-11.6.1-6.4-6.7-11.1-5.7-18 .4-12 10.6-19.3 9.1-31.1-3.6-4-1.1-4.8 2.7-7 4.4-7.6 5.7-15.7 7.9-22.5-.3-4.8-5.7-6.7-2.7-9.9 1.9Z" fill="#000"/></g><g transform="translate(246 125)"><path d="M27 199.5c-7.6-4.6-16.3-6-19.8-14.5-1.8-4.5-3.5-9-1.4-13.5 3-6.4 8.9-8.5 15-6 8.6 3.7 1.8 9 .5 13.6C45 199 75 190.2 95.3 176c7.1-5 4.4-10.5-1.6-14.1-11.2-6.7-21.4-15.5-36.4-13.7 2.5-12.3 10.3-12.6 17-11.2A67.4 67.4 0 0 1 108 154c10.4 10.2 9.5 23.6-1.5 33.3-16 14.2-35.7 17.2-55.9 16-7.4-.3-15.4.3-23.5-3.7Z" fill="#000"/></g><g transform="translate(-45 137)"><path d="M407.4 122.5c13 .3 25.4 1.1 37.6 2.5 3 .4 5 3.3 5 6.7 0 3.3-1.7 5.6-4.7 7-11.2 4.8-22 8.2-33.7.2-6.5-4.5-9-8.7-4.2-16.4ZM251.2 124c6.4 2.8 5.6 6.6 3 10.6-5.9 8.6-27.3 12.5-36 6.6-5-3.4-8-8-5.6-14 2.5-6.2 7.7-5.6 12.8-3.6 8.3 3.3 16.5 1.7 25.8.4ZM419.6 111c-4.2-9.5-9.9-15.2-19.8-15.7-6-.3-7-5.1-8.9-9.8 2-1.5 3.5-3.7 5.3-3.8 21.1-1.7 42.4-1.8 63.5-.1 6 .4 9.3 8 3.2 10.4-10 4-12.5 13.2-18.5 19.8-8.2 9-15.2 9.1-24.8-.8ZM229.6 81.1c12.2.7 23.1 1 34 2 3.6.3 8 1.8 8 6.7 0 5.6-4.6 5.2-8.3 5.1-6.3 0-9.7 2.7-12.5 8.6-3.4 7.4-6.9 15.3-18 14.8-10.5-.6-15.1-7.2-18.2-15.2-2-5.7-4.9-8.4-10.9-8.2-3.4.1-7.1-.2-7.5-4.9-.4-5 3-6 7-7.2a67.7 67.7 0 0 1 26.4-1.7Z" fill="#000"/></g><g transform="translate(-45 137)"><path fill-rule="evenodd" clip-rule="evenodd" d="M450.2 34.8c4.7 1 9.2 1 13.6 1 4.8 0 9.4 0 14 1.2 13 3.5 17.8 12.3 20.8 24.2 5 20.2 6.2 40 .1 60.3-3.4 11.5-7 18.4-22 18.3-27.5-.1-55.1.5-82.7 1.3-34.7 1-42.8-13.4-47.7-46.1-2.3-15.6-7.1-21.7-21.3-21.3-11.5.4-18.6 8.3-18.4 22.8a59 59 0 0 1-15.2 38.3c-9 11.3-21.6 10-33.7 8.7l-7-.7c-12.8-.9-25.6-2.2-38.5-3.5l-29.9-2.9c-12.5-1-21.8-8-23-20.6-.4-4.6-1.6-9-2.7-13.3-1-3.8-2-7.7-2.6-11.6-.7-5.4-3.3-8.5-8-10.3L31 36a49.2 49.2 0 0 1-16.2-12.3l-1.3-1.3c13.7-2.7 24.6 1.8 34.7 6.7 31.3 15.2 64 26.6 97 37.1 7 2.2 9.4-2 11.7-6.7 1-1.9 1.6-3.8 2.3-5.7.9-2.5 1.8-5 3-7.2 10.4-17.4 24-22 47.3-18.8l14.4 2c15.7 2.5 31.5 4.9 47.6 5 24.3 0 30.2 4.6 37.5 28.3l2.7-.4c10.4-1.9 21-3.8 31.7 1.3 4.7 2.2 6.2-2.5 7.3-6.4 5.1-18.5 11-23 29.3-23l70.2.2Zm-260.4 2.5c-5.7 0-10.8.7-14 6.5a85.6 85.6 0 0 0-7 72.5c1.5 4.2 3.5 7.5 8.8 7.9 30.4 2.4 61 5 91.4 7.7 6.5.6 10.8-2 15.3-6.9 11-11.7 11.6-26.2 12-40.3l.4-6.7c1.5-26.3-.8-28.1-29.1-32.6-17.9-2.9-36-4.4-54.7-6l-23-2.1Zm171.7 78c-3.9-9.3-7.8-18.8-6-29.4 1.2-4.3 2-8.5 2.8-12.6 1.5-7.4 2.8-14.4 6.5-20.8 3.3-5.8 7.5-8.3 14.3-8.5 31.5-.9 62.8 1.6 94.2 4.3 6.5.6 10.7 3.5 12.2 9.3 5.5 20.6 9.7 41.3 2.1 62.6-2.1 6-4.6 9.2-11.4 9.2l-8.8-.1c-30.2-.3-60.3-.6-90.5 1.2-7.7.5-11.9-6.5-14.4-12.7l-1-2.4Z" fill="#000"/></g><g transform="translate(119 114)"><path d="M56.8 30.9c9.5-10.6 21.8-16.2 31.6-25C93 1.8 98 3 101.8 7.5c3.8 4.3 7.3 8.3 2.7 14.5a83 83 0 0 1-42.7 28.3C47.4 55 32 56.5 17 59.3c-4.5.9-10.2 3.3-11.5-3.6-1.2-6.6 3.2-10 9.5-11.2 14.2-2.8 28.4-5.2 41.8-13.6ZM289.9 29c11.3 2 18 11 27.8 14.2 3.8 1.2 8.4 4.7 6.6 9.5-2.1 5.8-8 4.3-12.2 3a450.2 450.2 0 0 1-39.2-14.5c-12.8-5.6-25.1-12.4-37.4-19-6-3.2-11.6-7.8-7.4-15.2 4.2-7.3 11-9.5 18.3-3.7C259.4 13.8 275 19.8 290 29Z" fill="#000"/></g></g></svg>